<svg xmlns="http://www.w3.org/2000/svg" fill="none" viewBox="0 0 100 100" height="100" width="100">
<mask height="100" width="100" y="0" x="0" maskUnits="userSpaceOnUse" style="mask-type:alpha" id="mask0_810_19285">
<circle fill="#C4C4C4" r="50" cy="50" cx="50"></circle>
</mask>
<g mask="url(#mask0_810_19285)">
<path fill="url(#paint0_radial_810_19285)" d="M97.52 -38H2.48C-19.8765 -38 -38 -19.8765 -38 2.48V97.52C-38 119.876 -19.8765 138 2.48 138H97.52C119.876 138 138 119.876 138 97.52V2.48C138 -19.8765 119.876 -38 97.52 -38Z"></path>
</g>
<path fill="white" d="M65.8896 39.6494C66.1431 40.4009 65.6829 41.1898 64.9143 41.3951L59.8821 42.739C59.0041 42.9735 58.1099 42.4494 57.7783 41.6059C56.7074 38.8817 54.8392 36.5251 52.3993 34.8538C49.5053 32.8713 45.9966 31.9833 42.504 32.3491C39.0113 32.715 35.7643 34.3108 33.3469 36.8496C30.9294 39.3885 29.5005 42.7036 29.3166 46.1988C29.1327 49.694 30.2064 53.1397 32.3442 55.9167C34.482 58.6934 37.544 60.6187 40.979 61.3466C44.4139 62.0742 47.997 61.5562 51.0833 59.8863C53.6851 58.4784 55.7898 56.3292 57.1405 53.7318C57.5589 52.9271 58.5031 52.4992 59.3518 52.824L64.0235 54.6113C64.0378 54.6168 64.0518 54.6222 64.0659 54.628L83.9433 62.2326C84.7921 62.5574 85.216 63.5064 84.8902 64.352L83.1205 68.947C82.7947 69.7929 81.8423 70.2154 80.9938 69.8905L66.9705 64.5258C65.7216 64.0478 64.3441 63.5073 63.3872 62.5535C62.8992 62.0673 62.2982 61.3051 62.1751 61.1471C60.2481 63.5947 57.8271 65.6456 55.0419 67.1527C50.2196 69.7622 44.6215 70.5714 39.254 69.4344C33.8868 68.2973 29.1026 65.2889 25.7622 60.9502C22.4219 56.6116 20.7444 51.2274 21.0316 45.766C21.3188 40.3048 23.5518 35.1249 27.3288 31.158C31.1061 27.1911 36.1795 24.6976 41.6366 24.1259C47.0937 23.5543 52.5764 24.9419 57.0984 28.0395C61.224 30.8653 64.303 34.9449 65.8896 39.6494Z"></path>
<defs>
<radialGradient gradientTransform="translate(50 -62) rotate(90) scale(200)" gradientUnits="userSpaceOnUse" r="1" cy="0" cx="0" id="paint0_radial_810_19285">
<stop stop-color="#68A4FF"></stop>
<stop stop-color="#224FEE" offset="1"></stop>
</radialGradient>
</defs>
</svg>
