<svg xmlns="http://www.w3.org/2000/svg" fill="none" viewBox="0 0 48 48">
  <path d="M0 0h48v48H0z" fill="#111"></path>
  <g transform="translate(0 1)">
    <path d="M13.367 22.051c4.857-.8 8.662-4.816 9.462-9.67l.268-2.335c.065-.372-.185-.887-.655-.851-3.67.285-7.13 1.496-9.06 2.284a2.542 2.542 0 0 0-1.58 2.353v7.615c0 .452.405.795.851.723l.714-.116v-.003ZM25.17 12.378c.801 4.858 4.606 8.87 9.463 9.67l.714.116c.446.075.85-.27.85-.722v-7.615c0-1.033-.624-1.96-1.579-2.353-1.927-.789-5.39-2-9.06-2.285-.47-.036-.714.485-.658.85l.268 2.336.003.003ZM34.63 24.181c-6.637 1.309-9.718 5.72-9.718 14.073 0 .42.416.708.764.476 3.052-2.058 9.769-7.43 10.462-14.153.027-.848-1.032-.45-1.508-.396ZM13.37 24.181c6.636 1.309 9.717 5.72 9.717 14.073 0 .42-.416.708-.764.476-3.052-2.058-9.769-7.43-10.462-14.153-.027-.848 1.032-.45 1.508-.396Z" fill="#FFF"></path>
  </g>
</svg>