<svg viewBox="0 0 150 150" fill="none" height="150" width="150" xmlns="http://www.w3.org/2000/svg"><path d="M0 0h150v150H0z" fill="#2B2D31"></path><path d="M42.048 90.831a12.036 12.036 0 0 1 8.561-3.544c1.112 0 2.213.15 3.275.45a24.553 24.553 0 0 1 .05-25.404c-6.449 1.772-13.108-2.023-14.88-8.472a12.068 12.068 0 0 1-.431-3.214v-.33c-10.124 14.87-10.164 34.406-.12 49.326v-.25c0-3.214 1.262-6.289 3.545-8.562Z" fill="#FFDA00"></path><path d="M62.365 53.921c1.192-4.216 0-8.742-3.094-11.836l-.01.01a12.096 12.096 0 0 0-8.562-3.545h-.27a43.71 43.71 0 0 1 24.533-7.47h.17a43.818 43.818 0 0 1 31.073 13.008l.101.098c.065.064.13.126.189.192 3.685 3.865 3.535 9.994-.34 13.679-3.865 3.685-9.994 3.535-13.679-.34a24.57 24.57 0 0 0-17.394-7.29h-.09a24.505 24.505 0 0 0-12.627 3.494Z" fill="#1773EB"></path><path d="M43.71 44.168c2.333-2.334 4.256-3.475 7.01-3.475h.01c5.487 0 9.943 4.456 9.943 9.944 0 5.497-4.446 9.953-9.943 9.953-5.498 0-9.954-4.446-9.954-9.944.01-2.313.711-4.255 2.934-6.478Z" fill="#1773EB"></path><path d="M44.11 106.413c-2.333-2.334-3.474-4.266-3.474-7.01h.01v.03c0-5.467 4.416-9.893 9.883-9.913 5.478-.02 9.924 4.406 9.944 9.883.02 5.478-4.406 9.924-9.884 9.944-2.313 0-4.255-.711-6.478-2.934Z" fill="#E44F20"></path><path d="M92.356 92.554a9.707 9.707 0 0 1 6.82-2.804h.01a9.676 9.676 0 0 1 6.869 2.864c3.755 3.795 3.735 9.923-.06 13.688a43.762 43.762 0 0 1-30.982 12.778h-.17a43.739 43.739 0 0 1-24.554-7.591h.32c6.68 0 12.097-5.417 12.097-12.096 0-1.092-.14-2.183-.43-3.234a24.263 24.263 0 0 0 12.637 3.554h.09a24.59 24.59 0 0 0 17.353-7.16Z" fill="#E44F20"></path></svg>