<svg viewBox="0 0 102 102" fill="none" xmlns="http://www.w3.org/2000/svg"><g clip-path="url(#a)"><path d="M99.76 43.65 58.36 2.24 56.8.71 55.11 0H46.9l-1.7.7-1.54 1.54-41.41 41.4L.71 45.2 0 46.89v8.22l.7 1.7 1.54 1.54 41.4 41.41 1.55 1.53 1.7.71h8.22l1.7-.7 1.54-1.54 41.41-41.4 1.53-1.55.71-1.7V46.9l-.7-1.7-1.54-1.54Z" fill="#014847"></path><path d="M47.3 92.45V72.56l.54-.53h6.33l.52.53v19.9l-.52.52h-6.33l-.53-.53ZM47.3 29.44V9.54l.54-.52h6.33l.52.53v19.89l-.52.53h-6.33l-.53-.53ZM30.6 77.71h-.88l-4.35-4.35v-.87l5.8-5.8h4.6l.62.62v4.6l-5.8 5.8ZM25.37 29.73v-.87l4.35-4.35h.87l5.8 5.8v4.6l-.62.62h-4.6l-5.8-5.8ZM7.86 47.3h22.37l.53.53v6.33l-.53.53H7.86l-.53-.53v-6.33l.53-.53Z" fill="#32E6E2"></path><path d="M62.86 64.18h-6.33l-.52-.53v-14.8c0-2.64-1.04-4.68-4.22-4.75-1.63-.04-3.5 0-5.5.08l-.3.3v19.17l-.53.53h-6.33l-.53-.53v-25.3l.53-.53h14.24c5.53 0 10.01 4.48 10.01 10.02v15.81l-.53.53h.01Z" fill="#fff"></path><path d="M94.14 54.7H71.77l-.53-.53v-6.33l.53-.53h22.37l.53.53v6.33l-.53.53Z" fill="#32E6E2"></path></g><defs><clipPath id="a"><path d="M0 0h102v102H0z" fill="#fff"></path></clipPath></defs></svg>