<svg xmlns="http://www.w3.org/2000/svg" width="280" height="280" viewBox="0 0 280 280" fill="none">
<path opacity="0.3" d="M155.44 0C123.794 0 107.12 14.284 87.0576 46.9594C66.9953 79.6349 0 91.6868 0 149.853C0 208.019 46.4509 280 129.058 280C272.036 280 280 189.165 280 149.853C280 110.541 280 86.5094 238.125 59.5264C211.512 42.383 200.53 0 155.44 0Z" fill="url(#paint0_linear_233_2047)"/>
<path fill-rule="evenodd" clip-rule="evenodd" d="M79.5 86.153C79.5 84.6116 80.7952 83.5 82.2179 83.5L86.5717 83.5L86.5717 86.5L82.5 86.5L82.5 208.5L193 208.5L193 211.5L82.2178 211.5C80.7952 211.5 79.5 210.388 79.5 208.847L79.5 86.153Z" fill="#FFB59F"/>
<path d="M152.999 54V164.255C153.017 164.644 152.738 164.976 152.374 165H18.6268C18.451 164.99 18.2863 164.906 18.1689 164.766C18.0515 164.626 17.9911 164.442 18.0011 164.255V54H152.999Z" fill="white"/>
<path d="M80.0205 73H94.0205V76H80.0205V73Z" fill="#FF6B60"/>
<path d="M75.0618 83H57.0618V86H75.0618V83Z" fill="#FF6B60"/>
<path d="M68.0618 93H50.0618V96H68.0618V93Z" fill="#FF6B60"/>
<path d="M123.021 73H99.0205V76H123.021V73Z" fill="#FF6B60"/>
<path d="M38 64H26V67H38V64Z" fill="#FF9987"/>
<path d="M38 103H26V106H38V103Z" fill="#FF9987"/>
<path d="M34.0618 93H45.0618V96H34.0618V93Z" fill="#FF9987"/>
<path d="M98.0618 93H73.0618V96H98.0618V93Z" fill="#FF9987"/>
<path d="M103.062 93H115.062V96H103.062V93Z" fill="#FF9987"/>
<path d="M52.0618 83H34.0618V86H52.0618V83Z" fill="#FF9987"/>
<path d="M80.0618 83H108.062V86H80.0618V83Z" fill="#FF9987"/>
<path d="M46.0205 73H34.0205V76H46.0205V73Z" fill="#FF9987"/>
<path d="M51.0205 73H75.0205V76H51.0205V73Z" fill="#FF9987"/>
<path d="M140.021 73H128.021V76H140.021V73Z" fill="#FF9987"/>
<path d="M152.998 42.3885V54.2138H18.0019V42.3885C17.9634 41.6606 18.5234 41.0392 19.2531 41H151.752C152.48 41.0419 153.037 41.6625 152.998 42.3885V42.3885Z" fill="#FF6B60"/>
<path d="M26.1769 49.6175C27.2855 49.6175 28.1842 48.7211 28.1842 47.6154C28.1842 46.5096 27.2855 45.6133 26.1769 45.6133C25.0684 45.6133 24.1697 46.5096 24.1697 47.6154C24.1697 48.7211 25.0684 49.6175 26.1769 49.6175Z" fill="#B7303D"/>
<path d="M34.1222 49.6175C35.2308 49.6175 36.1295 48.7211 36.1295 47.6154C36.1295 46.5096 35.2308 45.6133 34.1222 45.6133C33.0137 45.6133 32.115 46.5096 32.115 47.6154C32.115 48.7211 33.0137 49.6175 34.1222 49.6175Z" fill="#B7303D"/>
<path d="M44.0753 47.6154C44.0753 48.7211 43.1766 49.6175 42.068 49.6175C40.9595 49.6175 40.0608 48.7211 40.0608 47.6154C40.0608 46.5096 40.9595 45.6133 42.068 45.6133C43.1766 45.6133 44.0753 46.5096 44.0753 47.6154Z" fill="#B7303D"/>
<rect x="26" y="116" width="119" height="41" fill="#FFEBDF"/>
<path d="M231 167.513L166.609 217.594L102.211 167.513L165.556 105.039C166.14 104.463 167.078 104.463 167.662 105.039L231 167.513Z" fill="#B7303D"/>
<path d="M111 128H222.683V222.486H111V128Z" fill="white"/>
<path fill-rule="evenodd" clip-rule="evenodd" d="M146.314 157.071H119.971V153.071H146.314V157.071ZM146.314 166.962H119.971V162.962H146.314V166.962ZM188.331 186.753H119.971V182.753H188.331V186.753ZM212.686 200.155H119.971V196.155H212.686V200.155Z" fill="#FF9987"/>
<path d="M231 167.513V241.898C231 242.726 230.328 243.398 229.5 243.398H103.711C102.883 243.398 102.211 242.726 102.211 241.898V167.513L166.609 217.594L231 167.513Z" fill="#FF6B60"/>
<path d="M246.362 223.463C246.936 225.385 257.968 244.76 264.088 255.679L270.649 251.674C268.647 245.981 266.344 238.399 264.742 232.673C262.019 222.942 259.843 220.352 259.056 217.596C258.268 214.84 262.44 198.621 263.768 191.32C265.096 184.018 265.036 176.17 263.768 173.54L247.396 173.5C247.396 173.5 244.473 217.122 246.362 223.463Z" fill="#003F5E"/>
<path d="M236.104 213.63C236.104 220.465 237.986 221.719 239.441 237.891C240.168 245.9 239.668 252.934 239.514 258.207H249.178C250.314 254.163 251.026 250.011 251.301 245.82C251.968 238.018 251.748 221.619 252.262 217.381C252.776 213.143 260.698 187.474 260.698 177.637V173.525H237.125C236.664 187.167 236.124 207.483 236.104 213.63V213.63Z" fill="url(#paint1_linear_233_2047)"/>
<path d="M265.717 278.523C261.499 278.523 258.729 278.23 258.162 277.188C257.934 276.769 258.615 276.568 259.632 276.267C260.103 276.128 260.647 275.967 261.205 275.754C262.206 277.516 267.539 274.919 268.707 273.751C269.875 272.583 275.715 263.326 276.269 261.518C277.276 262.452 277.937 263.073 277.997 263.787C278.084 264.836 276.16 267.376 274.144 270.039C273.98 270.254 273.816 270.471 273.652 270.688C272.848 271.75 272.206 272.819 271.609 273.812C270.032 276.436 268.777 278.523 265.717 278.523Z" fill="#003F5E"/>
<path d="M237.72 278.456C236.526 278.416 235.341 278.377 234.255 278.377C233.184 278.377 232.011 278.414 230.83 278.451C226.283 278.594 221.627 278.74 222.268 276.795C222.388 276.455 223.403 276.148 224.898 275.787C224.978 276.108 230.19 276.488 234.722 276.488C239.427 276.488 245.287 275.1 246.402 274.433C246.61 275.206 246.747 275.997 246.809 276.795C246.909 278.76 242.249 278.606 237.72 278.456Z" fill="#003F5E"/>
<path d="M203.821 130.104C210.074 130.491 222.942 131.512 224.411 131.906C225.659 132.247 232.046 135.47 237.125 138.293C237.959 136.834 238.922 135.451 240.001 134.162C242.431 132.333 248.965 129.817 252.916 128.603C245.481 126.947 232.226 123.931 225.652 123.71C222.108 123.597 212.15 124.238 203.928 124.845L203.821 130.104Z" fill="#00AEA0"/>
<path d="M188.604 128.435C190.826 128.215 193.049 128.956 192.828 129.99C192.74 130.407 192.06 130.657 191.304 130.935C190.182 131.348 188.892 131.822 189.111 132.994C189.11 133.007 189.116 133.02 189.127 133.028C189.138 133.036 189.152 133.038 189.164 133.034C189.593 132.926 190.346 132.794 191.218 132.641C192.818 132.362 194.821 132.012 195.965 131.606C196.614 131.375 197.237 131.105 197.823 130.851C198.834 130.413 199.738 130.02 200.49 129.957C200.757 129.957 202.012 129.957 203.827 130.104L203.934 124.845C197.754 125.305 192.588 125.746 191.794 125.839C190.019 126.059 182.897 127.394 182.083 127.915C181.269 128.435 186.374 128.656 188.604 128.435Z" fill="#FF927C"/>
<path d="M268.707 273.758C267.539 274.919 262.206 277.516 261.205 275.76C262.499 275.345 263.621 274.515 264.395 273.398C266.284 270.374 269.074 265.275 268.059 262.919C267.792 262.332 266.251 259.509 264.088 255.658L270.649 251.653C272.071 255.638 273.459 258.801 274.22 259.582C274.967 260.35 275.657 260.969 276.238 261.491L276.269 261.518C275.715 263.326 269.875 272.597 268.707 273.758Z" fill="#FF927C"/>
<path d="M246.402 274.467C245.287 275.135 239.427 276.523 234.722 276.523C230.19 276.523 224.437 276.036 224.884 275.762H224.964L225.35 275.669C229.309 274.718 235.97 273.118 238.98 268.087C239.534 267.126 240.041 263.548 240.201 258.209H248.517C248.32 258.851 248.124 259.481 247.933 260.096C247.046 262.943 246.258 265.474 245.961 267.373C245.575 269.741 245.725 272.165 246.402 274.467Z" fill="#FF927C"/>
<path d="M195.858 177.157C194.523 177.524 192.561 177.484 192.521 177.117C192.484 176.772 196.029 174.818 197.027 174.268C197.091 174.233 197.145 174.204 197.186 174.181C198.789 173.24 200.455 172.413 202.172 171.704C202.853 171.511 207.858 168.708 212.53 165.958L215.16 171.818C213.505 172.532 212.21 173.079 211.636 173.293C210.169 173.861 208.383 176.091 207.44 177.269C207.164 177.614 206.96 177.868 206.857 177.965C205.588 178.837 204.249 179.603 202.853 180.254C202.581 180.373 202.201 180.575 201.804 180.787C200.955 181.239 200.028 181.733 199.91 181.542C199.786 180.726 200.03 179.898 200.577 179.28C200.921 178.832 201.612 178.344 202.232 177.905C202.814 177.494 203.334 177.126 203.447 176.877C203.68 176.363 203.253 175.195 202.586 175.155C201.573 175.081 199.373 175.895 197.674 176.524C196.922 176.802 196.268 177.045 195.858 177.157Z" fill="#FF927C"/>
<path d="M244.726 108.421L248.404 107.753C246.849 104.983 245.214 102.708 245.267 100.071C245.152 100.167 245.042 100.269 244.94 100.378C241.85 103.662 243.338 107.253 244.726 108.421V108.421Z" fill="#003F5E"/>
<path d="M245.641 133.783C246.549 131.86 247.423 122.65 247.35 121.842C247.276 121.035 244.426 121.475 242.845 120.508C241.663 119.8 242.13 118.152 242.177 117.551C242.224 116.95 241.683 116.163 241.65 115.616C241.617 115.068 241.783 114.281 241.737 113.9C241.69 113.52 240.075 112.565 240.342 111.845C240.609 111.124 242.571 110.169 243.292 109.669C244.013 109.168 244.033 108.1 244.013 106.679C243.993 105.257 245.214 102.714 246.682 101.954C249.572 100.439 258.696 100.145 260.698 107.7C262.7 115.255 258.863 117.711 256.727 119.173C254.747 120.429 253.632 122.684 253.837 125.019C254.064 127.235 254.611 133.309 254.611 133.309L245.641 133.783Z" fill="#FF927C"/>
<path fill-rule="evenodd" clip-rule="evenodd" d="M241.098 115.79C242.426 116.017 243.788 115.703 244.882 114.917L244.531 114.43C243.569 115.122 242.368 115.399 241.2 115.198L241.098 115.79Z" fill="#EF5C8A"/>
<path d="M244.746 110.883C244.496 110.883 244.293 110.68 244.293 110.429C244.293 110.179 244.496 109.976 244.746 109.976C244.997 109.976 245.2 110.179 245.2 110.429C245.2 110.68 244.997 110.883 244.746 110.883Z" fill="#003F5E" stroke="#003F5E" stroke-width="0.667414"/>
<path fill-rule="evenodd" clip-rule="evenodd" d="M246.143 107.588C245.659 107.14 245.077 106.746 244.422 106.575L244.271 107.156C244.796 107.292 245.292 107.618 245.736 108.029C246.178 108.437 246.552 108.915 246.834 109.33L247.331 108.993C247.032 108.554 246.629 108.037 246.143 107.588Z" fill="#003F5E"/>
<path d="M212.491 165.978L215.12 171.838C220.42 169.542 229.43 165.484 230.564 164.803C232.286 163.769 235.236 160.245 238.113 156.334C237.779 161.366 237.125 173.513 237.125 173.513L265.624 174.581C265.523 163.128 263.221 148.965 262.16 142.251C261.443 137.924 259.989 133.752 257.862 129.917L257.668 129.597C257.001 128.516 256.333 127.868 255.879 127.875C254.87 128.018 253.877 128.262 252.916 128.603C248.965 129.817 242.431 132.333 240.001 134.162C238.922 135.451 237.96 136.834 237.125 138.293C233.508 144.047 227.828 153.857 227 155.199C225.852 157.061 223.757 158.816 220.086 161.319C218.598 162.327 215.614 164.142 212.491 165.978V165.978Z" fill="#00AEA0"/>
<path d="M245.207 100.117C245.154 102.754 246.849 105.457 248.404 108.207C249.879 110.823 251.28 113.88 251.174 118.124C251.067 122.369 249.171 125.953 248.878 129.524C248.584 133.094 250.48 136.952 252.215 138.4C254.638 140.449 258.008 142.225 260.771 140.403C266.558 136.578 261.185 133.488 263.734 127.842C266.738 121.168 262.72 118.498 263.014 117.07C263.307 115.642 268.099 111.237 262.546 103.341C257.835 96.6269 248.591 97.0874 245.207 100.117V100.117Z" fill="#003F5E"/>
<path fill-rule="evenodd" clip-rule="evenodd" d="M244.778 144.877C243.686 147.308 240.757 151.871 237.709 156.039L238.516 156.629C241.568 152.455 244.552 147.821 245.69 145.287L244.778 144.877Z" fill="#00838C"/>
<defs>
<linearGradient id="paint0_linear_233_2047" x1="280" y1="280" x2="280" y2="0" gradientUnits="userSpaceOnUse">
<stop stop-color="#FF6B60"/>
<stop offset="0.489583" stop-color="#FF9987" stop-opacity="0.5"/>
<stop offset="1" stop-color="white" stop-opacity="0.01"/>
</linearGradient>
<linearGradient id="paint1_linear_233_2047" x1="260.731" y1="258.258" x2="236.104" y2="258.258" gradientUnits="userSpaceOnUse">
<stop stop-color="#005D70"/>
<stop offset="1" stop-color="#003F5E"/>
</linearGradient>
</defs>
</svg>