<svg xmlns="http://www.w3.org/2000/svg" fill="none" viewBox="0 0 100 100" height="100" width="100">
<circle fill="#95BF47" r="50" cy="50" cx="50"></circle>
<path fill="white" d="M59.5205 24.1934C59.5205 24.1934 58.8173 24.3917 57.6621 24.7388C57.4612 24.0942 57.1598 23.3504 56.758 22.557C55.452 20.0777 53.4931 18.7389 51.1826 18.7389C51.032 18.7389 50.8813 18.7389 50.6804 18.7885C50.6301 18.6893 50.5297 18.6397 50.4794 18.5405C49.4749 17.4497 48.1689 16.9538 46.6119 17.0034C43.5982 17.1025 40.5845 19.2348 38.1735 23.0529C36.4658 25.7305 35.1598 29.1024 34.8082 31.7304C31.3425 32.7718 28.9315 33.5155 28.8813 33.5651C27.1233 34.1106 27.0731 34.1602 26.8721 35.7965C26.5708 37.0362 22 71.9944 22 71.9944L59.9726 78.4901V24.0942C59.7717 24.1438 59.621 24.1438 59.5205 24.1934ZM50.7306 26.871C48.7215 27.466 46.5114 28.1602 44.3516 28.8049C44.9543 26.4743 46.1598 24.1438 47.5662 22.6066C48.1187 22.0612 48.8721 21.4165 49.726 21.0199C50.5799 22.8049 50.7808 25.2347 50.7306 26.871ZM46.6621 18.9868C47.3653 18.9868 47.968 19.1356 48.4703 19.4331C47.6667 19.8298 46.863 20.4744 46.1096 21.2182C44.2009 23.2512 42.7443 26.4247 42.1415 29.4495C40.3333 29.9949 38.5251 30.5404 36.8676 31.0362C37.9224 26.3256 41.9909 19.1356 46.6621 18.9868ZM40.7854 46.2592C40.9863 49.4327 49.4749 50.1269 49.9772 57.6144C50.3288 63.5151 46.8128 67.5316 41.7397 67.8291C35.6119 68.2258 32.2466 64.6556 32.2466 64.6556L33.5525 59.2011C33.5525 59.2011 36.9178 61.73 39.6301 61.5317C41.3881 61.4325 42.0411 59.9945 41.9909 59.0028C41.7397 54.8376 34.8082 55.0855 34.3562 48.2426C33.9543 42.5402 37.7717 36.7386 46.21 36.1932C49.4749 35.9949 51.1324 36.7882 51.1324 36.7882L49.2237 43.9286C49.2237 43.9286 47.0639 42.9369 44.5023 43.1353C40.7854 43.3832 40.7352 45.7137 40.7854 46.2592ZM52.7397 26.276C52.7397 24.7884 52.5388 22.6562 51.8356 20.8711C54.1461 21.3174 55.2511 23.8463 55.7534 25.3834C54.8493 25.6314 53.8447 25.9289 52.7397 26.276Z"></path>
<path fill="white" d="M61.2283 78.2918L77 74.4241C77 74.4241 70.2192 29.152 70.1689 28.8544C70.1187 28.5569 69.8676 28.3586 69.6164 28.3586C69.3653 28.3586 64.9452 28.2594 64.9452 28.2594C64.9452 28.2594 62.2329 25.6809 61.2283 24.6892V78.2918V78.2918Z"></path>
</svg>
